ply
format ascii 1.0
element vertex 16
property float x
property float y
property float z
element face 28
property list uchar int vertex_indices
end_header
4.202589536 -4.244306348 6.986383046
4.160583955 -4.215261046 6.932975696
4.104320233 -4.210601077 6.963185777
4.153537909 -4.209045147 6.971856717
4.177056989 -4.176702642 6.970948569
4.194695350 -4.152445766 6.970266972
4.135898604 -4.233301552 6.972537349
4.142945122 -4.239517448 6.933656809
4.163116983 -4.129744816 6.960914921
4.201742344 -4.158661186 6.931386434
4.111365802 -4.216816499 6.924304749
4.170163501 -4.135960236 6.922034379
4.184103035 -4.182918064 6.932067545
4.226108138 -4.211963843 6.985474893
4.209635581 -4.250522247 6.947502025
4.233155138 -4.218179742 6.946593881
3 15 13 0
3 15 0 14
3 0 3 1
3 0 1 14
3 4 5 8
3 8 2 6
3 6 3 4
3 8 6 4
3 13 15 12
3 13 12 4
3 11 8 5
3 11 5 9
3 1 3 6
3 1 6 7
3 7 6 2
3 7 2 10
3 10 2 8
3 10 8 11
3 5 4 12
3 5 12 9
3 12 1 7
3 7 10 11
3 11 9 12
3 7 11 12
3 0 13 4
3 0 4 3
3 15 14 1
3 15 1 12
