ply
format ascii 1.0
element vertex 64
property float x
property float y
property float z
property uchar red
property uchar green
property uchar blue
end_header
4.161454113 -4.166913778 6.925364801 220 220 220
4.171296474 -4.152173436 6.925005783 220 220 220
4.185787989 -4.161416733 6.928994776 220 220 220
4.176011699 -4.176193832 6.929375225 220 220 220
4.211471445 -4.213095240 6.941835758 220 220 220
4.205661266 -4.229881792 6.943568756 220 220 220
4.189247250 -4.224796600 6.939672882 220 220 220
4.194975118 -4.208039500 6.937885896 220 220 220
4.142324938 -4.164032030 6.949769995 220 220 220
4.145185933 -4.167419687 6.932312571 220 220 220
4.134518226 -4.181879985 6.933118777 220 220 220
4.131709243 -4.178559906 6.950544673 220 220 220
4.173771226 -4.138245281 6.952653741 220 220 220
4.187506543 -4.147973715 6.958951088 220 220 220
4.192389214 -4.151905278 6.941900229 220 220 220
4.178613572 -4.142222557 6.935745403 220 220 220
4.133144385 -4.231821303 6.940668295 220 220 220
4.129936157 -4.228930413 6.958477104 220 220 220
4.115332391 -4.218252999 6.954418679 220 220 220
4.118576152 -4.221274667 6.936410698 220 220 220
4.080669285 -4.219427895 6.961357041 255 140 0
4.088859608 -4.203459464 6.960133573 255 140 0
4.104423720 -4.211184280 6.964511610 255 140 0
4.096106512 -4.227156506 6.965321534 255 140 0
4.174169552 -4.224415403 6.962283722 220 220 220
4.183984594 -4.231831238 6.948711819 220 220 220
4.195255863 -4.239783276 6.960885489 220 220 220
4.185491012 -4.232019163 6.974958284 220 220 220
4.140829938 -4.198434569 6.926705511 220 220 220
4.155276077 -4.207730776 6.930740931 220 220 220
4.145619030 -4.222593112 6.931454489 220 220 220
4.131037059 -4.213324094 6.927437828 220 220 220
4.225893469 -4.222434049 6.958734136 220 220 220
4.220231328 -4.222736449 6.976322118 220 220 220
4.210153906 -4.238364510 6.973021559 220 220 220
4.216030193 -4.238015114 6.954980508 220 220 220
4.201031540 -4.194217422 6.969909211 220 220 220
4.215618095 -4.204745640 6.970101335 220 220 220
4.215800926 -4.205373963 6.952053580 220 220 220
4.201199669 -4.194837845 6.951652458 220 220 220
4.178467022 -4.122086510 6.963205220 255 140 0
4.162979003 -4.130762444 6.961922198 255 140 0
4.154736696 -4.115639651 6.957859396 255 140 0
4.170154121 -4.106950739 6.959166322 255 140 0
4.250543203 -4.216083074 6.990577115 255 140 0
4.236302526 -4.226838478 6.989732569 255 140 0
4.225905152 -4.212672692 6.985791490 255 140 0
4.240147302 -4.202050103 6.986542372 255 140 0
4.044778841 -4.406989607 6.983224920 80 255 80
4.051612786 -4.423394482 6.986592516 80 255 80
4.034985740 -4.430823230 6.984934098 80 255 80
4.028197125 -4.414520692 6.981337269 80 255 80
4.233659686 -3.948152276 6.944470334 80 255 80
4.226949143 -3.932650094 6.939957001 80 255 80
4.242574128 -3.925181801 6.941823734 80 255 80
4.249854511 -3.940905800 6.945624342 80 255 80
4.397296520 -4.252697566 7.021937935 80 255 80
4.381164340 -4.260816832 7.020271883 80 255 80
4.373700153 -4.244677561 7.016701266 80 255 80
4.389640191 -4.236615380 7.018135175 80 255 80
4.208264447 -4.269909560 6.991501101 255 140 0
4.193114048 -4.260812559 6.987660280 255 140 0
4.202516101 -4.245386690 6.986981910 255 140 0
4.217521680 -4.254506333 6.990639486 255 140 0
